# xmcd
#
# Track frame offsets: 
#        182
#        13667
#        28447
#        41457
#        52632
#        70367
#        91197
#        103922
#        120132
#        131942
#        151407
#        168940
#        177852
#        193707
#        206937
#        218377
#
# Disc length: 3062 seconds
#
# Revision: 4
# Processed by: cddbd v1.5.2PL0 Copyright (c) Steve Scherf et al.
# Submitted via: ExactAudioCopyFreeDBPlugin 1.0
#
DISCID=d80bf410
DTITLE=Various Artist - Asphalt - Helden Folge 2
DYEAR=1997
DGENRE=Country
TTITLE0=Truck Stop - Take It Easy altes Haus
TTITLE1=Western Union - Auf der Autobahn (On the road again)
TTITLE2=Linda Felller - Soviel zeit muss sein
TTITLE3=Cactus - Bärenstarke Cowboys
TTITLE4=Michael Holm - Lucille (Mußt Du jetzt gerade gehen)
TTITLE5=Gunter Gabriel - Er ist ein Kerl (Der 30 Tonner Diesel)
TTITLE6=Contry Rose - Du bist das Feuer tief in meiner Seele
TTITLE7=Tom Astor - Und ich seh die Trucks vorüberziehn
TTITLE8=Thomas Wagner and Country Co - Vor zweimal 50 Jahrn
TTITLE9=Sonnys Country Spezial - Du machst mir Mut
TTITLE10=Bruce Low - Delta dawn
TTITLE11=Jonny Hill - Ein Ring aus Feuer (Ring of Fire)
TTITLE12=Gaby Berger - Manolito
TTITLE13=Country Green - Country Morgen
TTITLE14=Peter Held - Wenn ein Wunsch mir bliebe (One more Plan)
TTITLE15=Peter Hinnen - Auf meiner Ranch bin ich König
EXTD=
EXTT0=
EXTT1=
EXTT2=
EXTT3=
EXTT4=
EXTT5=
EXTT6=
EXTT7=
EXTT8=
EXTT9=
EXTT10=
EXTT11=
EXTT12=
EXTT13=
EXTT14=
EXTT15=
PLAYORDER=
